<?xml version="1.0" encoding="utf-8"?>
<!-- Generator: Adobe Illustrator 21.0.2, SVG Export Plug-In . SVG Version: 6.00 Build 0)  -->
<svg version="1.1" id="Layer_1" xmlns="http://www.w3.org/2000/svg" xmlns:xlink="http://www.w3.org/1999/xlink" x="0px" y="0px"
	 viewBox="0 0 387 156" style="enable-background:new 0 0 387 156;" xml:space="preserve">
<style type="text/css">
	.st0{fill:#202020;}
	.st1{fill:none;stroke:url(#SVGID_1_);stroke-width:2.5;stroke-miterlimit:10;}
	.st2{fill:none;stroke:url(#SVGID_2_);stroke-width:2.5;stroke-miterlimit:10;}
	.st3{fill:#EDEDED;}
	.st4{fill:none;stroke:url(#SVGID_3_);stroke-width:2.5;stroke-miterlimit:10;}
	.st5{fill:none;stroke:url(#SVGID_4_);stroke-width:2.5;stroke-miterlimit:10;}
	.st6{fill:none;stroke:#EDEDED;stroke-width:2.5;stroke-miterlimit:10;}
	.st7{fill:none;stroke:#060707;stroke-width:2.5;stroke-miterlimit:10;}
	.st8{fill:url(#SVGID_5_);}
	.st9{fill:#E82C86;}
	.st10{fill:#EA4D50;}
	.st11{fill:#ED6A3A;}
	.st12{fill:url(#SVGID_6_);}
	.st13{fill:#222323;}
	.st14{fill:url(#SVGID_7_);}
</style>
<g>
	<path class="st0" d="M90.2,47.9c0,2.7-0.9,4.9-2.7,6.8c-1.4,1.5-3.3,2.9-5.7,4.4c-1.1,0.7-3.2,1.9-6.1,3.8c-2.5,1.6-4.8,2.9-6.9,4
		c-1.5,0.8-4.7,2.5-9.6,5.2c-0.8,0.5-2.1,1.2-3.9,2.1c-0.3,0.3-0.6,0.7-1.1,1.2c-2.2,0.5-5.7,2.6-10.6,6.3h-1.6
		c-0.6-0.5-0.8-1.2-0.8-2c0-1.2,2.1-2.9,6.4-5.2c1.5-0.8,4.3-2.2,8.3-4.3c0.9-0.5,2.6-1.4,5.1-2.9C69,63,75.8,59.1,81.2,55.8
		c1.3-0.7,2.5-1.9,3.8-3.6c1.3-1.7,2-3.3,2-4.7c0-0.3-0.5-1.3-1.6-3c-2.2-3.8-7-6.7-14.4-8.8c-5.8-1.6-11.6-2.4-17.5-2.4
		c-0.2,0-2.4,0.1-6.6,0.3c-0.5,3.1-1,7.8-1.8,14.1c-0.5,4.1-0.7,6.5-0.7,7.2v9.9c0,0.4,0.2,0.7,0.6,1c0.1,0.9,0.2,1.8,0.2,2.7
		l-0.1,2.5c-0.2,0.3-0.5,0.5-1,0.5c-1,0-1.8-1.6-2.4-4.9c-0.4-2.2-0.6-4.2-0.6-6.2c0-2.1,0.3-6.4,1-13c0.7-7.2,1.4-11.1,1.9-11.8
		v-0.9c-0.2-0.2-0.3-0.3-0.5-0.3c-1.5,0-3.5,0.4-6.2,1.2c-3.2,0.9-4.8,1.9-4.8,2.9c0,0.4,0.3,0.8,0.8,1.1V41
		c-2.2-1.1-3.2-2.3-3.2-3.6c0-2.5,3.4-4.5,10.3-5.9c4.8-1,9.4-1.4,13.8-1.4c12.6,0,22.7,2.8,30.3,8.5c1.1,0.8,2.3,2.2,3.6,4.2
		C89.5,45.1,90.2,46.7,90.2,47.9z"/>
	<path class="st0" d="M111.8,77.2c-0.7,0.8-1.6,1.2-2.7,1.2h-10c-2.3,0-4.9-0.3-7.8-1c-3.7-0.9-5.9-2-6.3-3.4
		c-0.5-1.5-0.8-3-0.8-4.4c0-2.9,1.2-5,3.7-6.6c2.1-1.3,4.6-2,7.6-2c2.6,0,4.6,0.6,6.1,1.7c1.5,1.1,2.3,2.6,2.3,4.5
		c0,1.1-1.8,2.2-5.4,3.5c-3,1.1-5.2,1.6-6.5,1.6c-0.2,0-0.3,0-0.5,0c0,0.3-0.2,0.6-0.6,1c0.2,0.4,1.3,0.8,3.3,1.3
		c1.8,0.5,3,0.7,3.8,0.7h9c0,0,1.1,0.2,3.4,0.5C111,76.1,111.5,76.6,111.8,77.2z M100.2,65.9c-1.1-1.1-2.8-1.6-5.1-1.6
		c-1.6,0-3.2,0.3-4.6,1c-1.8,0.8-2.7,2-2.7,3.4c0,0.5,0.2,0.9,0.5,1.1h1.8c0.6,0,2.4-0.5,5.2-1.6S99.8,66.3,100.2,65.9z"/>
	<path class="st0" d="M133.2,71.9c0,1.6-0.5,2.7-1.6,3.2c-0.8,0.4-2.7,1-5.7,1.9c-3.1,1-5,1.4-5.7,1.4c-0.1,0-0.3-0.1-0.5-0.2
		c-0.2-0.1-0.3-0.2-0.4-0.2c-0.4,0-1.2,0.6-2.4,1.8c-0.8-0.6-1.2-1.1-1.2-1.4c0-2.1,3.2-3.8,9.5-5.1c0.4-0.1,1.1-0.2,2.2-0.4
		c0.3-0.2,0.8-0.6,1.4-1.2c-0.6-1-1.5-1.7-2.8-2.2c-1.3-0.4-3.5-1.3-6.9-2.6c-3.3-1.3-4.9-2.7-4.9-4.3c0-2.1,2.1-3.1,6.2-3.1
		c1.6,0,3.6,0.2,6,0.5c2.9,0.4,4.7,0.9,5.6,1.4l-0.5,0.7l-10.5,0.5c-0.1,0.1-0.3,0.3-0.7,0.6l7.6,3.4
		C131.4,68.2,133.2,69.9,133.2,71.9z"/>
	<path class="st0" d="M165.7,59.5c-4.3,0-8,0.7-11.2,2.2c-0.8,0.3-1.2,0.8-1.4,1.4c0,0.9-0.2,2.5-0.5,4.8c-0.1,0.9-0.1,1.8-0.1,2.7
		c0,0.2,0,0.8,0.1,1.9c0.1,1.1,0.1,1.7,0.1,1.9c0,1.5-0.4,2.7-1.1,3.7c-0.2,0-0.6-0.2-1.2-0.5c-0.7-1.9-1.1-4.1-1.1-6.7
		c0-0.6,0.1-1.9,0.3-3.7c0.2-1.8,0.3-3.1,0.3-3.7c0-0.6-0.2-1-0.6-1.3c-0.3,0.1-1.5,0.3-3.6,0.5c-0.4,0.1-1.4,0.2-3.2,0.5
		c-0.3,0-0.9,0.1-1.8,0.2c-0.2,0-0.7,0.3-1.4,0.9c-0.2,0.2-0.3,0.5-0.3,1.1c0,0.1,0,0.1,0,0.2h-1.2c-0.3,0-0.9-0.4-1.8-1.2
		c-0.9-0.8-1.3-1.3-1.3-1.5c0-1.2,2.1-2,6.2-2.6c5.1-0.7,8.1-1.3,9.1-1.8c0.6-0.3,1.2-4.1,1.9-11.2c0.3-3.5,1-8,2.1-13.5
		c0.1-0.5,0.2-1.2,0.5-2.2c0.1-0.2,0.7-0.6,2-1.2l0.5,3.5c-0.1,0.5-0.3,1.5-0.5,3l-1.2,7.3c-0.1,0.6-0.3,1.8-0.5,3.5l-0.5,10.1
		l11.4-0.1V59.5z"/>
	<path class="st0" d="M191.8,64l-0.9,0.8c-2-0.6-3.5-0.9-4.6-0.9c-0.1,0-0.2,0-0.2,0c-1.4,0.1-2.5,0.1-3.1,0.1h-2.3
		c0,0-0.7,0.2-2,0.6c-0.8,0.1-2,0.3-3.6,0.6c-2.5,1.1-4,3.1-4.5,5.9c-0.2,1.1-0.3,2.1-0.3,2.9c0,0.2,0,0.5,0,0.7
		c0.2,2.1,0.2,3.3,0.2,3.7c-0.4,0.1-1.1,0.2-2.1,0.3c-0.5-1-0.8-1.7-0.8-2.1c0-0.2,0-0.7,0.1-1.6c0.1-0.9,0.1-1.5,0.1-1.8
		c0-1.6,0.7-4.3,2.1-8.2c0.5-1,1.2-1.8,2-2.4c1.9-1.3,5.5-2,10.7-2c5.2,0,8.3,0.7,9.1,2.1V64z"/>
	<path class="st0" d="M223.5,62.7c0,0.8-1.4,2.8-4.3,5.9c-2.5,2.8-4.4,4.6-5.6,5.6c-0.6,0.5-2,1.4-4,2.9c-0.8,0.6-2.2,1.2-3.9,1.8
		c-1.8,0.6-3.2,0.9-4.2,0.9c-1.9,0-3.5-1.2-4.8-3.7c-1-2-1.6-4.1-1.6-6.3c0-1.8,0.4-3.7,1.1-5.6c0.3,0,0.6-0.1,0.9-0.4
		c0.4,0.2,0.8,0.6,1.5,1.2c-0.2,1.5-0.3,2.8-0.3,3.9c0,4.6,1.5,6.9,4.4,6.9c2.9,0,6.3-1.8,10.3-5.4c0.6-0.6,3.7-3.4,9.1-8.5h0.5
		C223.2,61.9,223.5,62.2,223.5,62.7z"/>
	<path class="st0" d="M251.1,74.7c-1.1,0.7-2.3,1.1-3.4,1.4c-1.9,0.4-4.5,0.8-8.1,1.4c-2.3,0.4-3.7,0.6-4.2,0.6
		c-2.4,0-4.7-0.5-7.1-1.4c-3-1.2-4.5-2.8-4.5-4.8c0-2.2,1.6-4.2,4.8-6c4.7-2.5,7.6-3.8,8.8-3.8l3.6,0.4h0c-0.2,0-0.4,0.2-0.4,0.7
		c-0.1,0.6-0.1,1-0.2,1c-1.9,0.6-4.2,1.6-7.1,3.1c-3.7,1.9-5.5,3.3-5.5,4.3c0,1.8,2.3,3,6.9,3.5c0.8,0.1,1.3,0.1,1.6,0.1
		c0,0,0,0,0.1,0l14.2-2.2l0.5,0.4V74.7z"/>
	<path class="st0" d="M283.3,59.5c-4.3,0-8,0.7-11.2,2.2c-0.8,0.3-1.2,0.8-1.4,1.4c0,0.9-0.2,2.5-0.5,4.8c-0.1,0.9-0.1,1.8-0.1,2.7
		c0,0.2,0,0.8,0.1,1.9c0.1,1.1,0.1,1.7,0.1,1.9c0,1.5-0.4,2.7-1.1,3.7c-0.2,0-0.6-0.2-1.2-0.5c-0.7-1.9-1.1-4.1-1.1-6.7
		c0-0.6,0.1-1.9,0.3-3.7c0.2-1.8,0.3-3.1,0.3-3.7c0-0.6-0.2-1-0.6-1.3c-0.3,0.1-1.5,0.3-3.6,0.5c-0.4,0.1-1.4,0.2-3.2,0.5
		c-0.3,0-0.9,0.1-1.8,0.2c-0.2,0-0.7,0.3-1.4,0.9c-0.2,0.2-0.3,0.5-0.3,1.1c0,0.1,0,0.1,0,0.2h-1.2c-0.3,0-0.9-0.4-1.8-1.2
		c-0.9-0.8-1.3-1.3-1.3-1.5c0-1.2,2.1-2,6.2-2.6c5.1-0.7,8.1-1.3,9.1-1.8c0.6-0.3,1.2-4.1,1.9-11.2c0.3-3.5,1-8,2.1-13.5
		c0.1-0.5,0.2-1.2,0.5-2.2c0.1-0.2,0.7-0.6,2-1.2l0.5,3.5c-0.1,0.5-0.3,1.5-0.5,3l-1.2,7.3c-0.1,0.6-0.3,1.8-0.5,3.5l-0.5,10.1
		l11.4-0.1V59.5z"/>
	<path class="st0" d="M290.5,72.8c-0.2,3.1-0.3,4.8-0.3,5.3c-0.9,0.5-1.7,0.8-2.4,0.8c-0.3-0.9-0.5-1.9-0.5-3.2
		c0-7.1,0.9-10.9,2.7-11.4c0.6,0.3,1,0.8,1,1.4c0-0.2,0-0.4-0.1-0.4c0,0.2,0,0.5,0,0.8C290.9,67.5,290.8,69.7,290.5,72.8z
		 M293.2,51.2l0,0.1c0,0.7-0.8,1.6-2.3,2.7c-0.5-0.1-1.4-0.9-2.8-2.3c0.6-1.4,1.2-2,1.8-2C290.6,49.6,291.7,50.2,293.2,51.2z"/>
	<path class="st0" d="M328.1,59.8c-1.4,0.6-3.1,1.5-5.2,2.7c-0.2,0.1-1.5,1.4-3.9,3.9c-8.4,8.5-13.6,12.8-15.5,12.8
		c-0.4,0-1.2-1-2.4-3c-1.1-1.8-1.8-3-2-3.7c-0.3-0.8-0.8-2.4-1.6-4.6c-0.6-1.6-1.4-3-2.5-4.2v-2.4c1-0.2,1.5-0.4,1.5-0.4
		c0,0,0,0-0.1,0c0.4,0,1.8,2.2,4.3,6.5c2.5,4.4,4,6.5,4.5,6.5c0.6,0,2.8-1.7,6.3-5.1c4-3.9,6.3-6,6.9-6.3c2.5-1.7,4.9-3.4,7.4-4.9
		h1.9l0.5,0.4V59.8z"/>
	<path class="st0" d="M356.7,77.2c-0.7,0.8-1.6,1.2-2.7,1.2h-10c-2.3,0-4.9-0.3-7.8-1c-3.7-0.9-5.9-2-6.3-3.4
		c-0.5-1.5-0.8-3-0.8-4.4c0-2.9,1.2-5,3.7-6.6c2.1-1.3,4.6-2,7.6-2c2.6,0,4.6,0.6,6.1,1.7s2.3,2.6,2.3,4.5c0,1.1-1.8,2.2-5.4,3.5
		c-3,1.1-5.2,1.6-6.5,1.6c-0.2,0-0.3,0-0.5,0c0,0.3-0.2,0.6-0.6,1c0.2,0.4,1.3,0.8,3.3,1.3c1.8,0.5,3,0.7,3.8,0.7h9
		c0,0,1.1,0.2,3.4,0.5C355.8,76.1,356.4,76.6,356.7,77.2z M345,65.9c-1.1-1.1-2.8-1.6-5.1-1.6c-1.6,0-3.2,0.3-4.6,1
		c-1.8,0.8-2.7,2-2.7,3.4c0,0.5,0.2,0.9,0.5,1.1h1.8c0.6,0,2.4-0.5,5.2-1.6S344.6,66.3,345,65.9z"/>
</g>
<g>
	<path class="st0" d="M103,102h7.8c1.9,0,3.7,0.3,5.3,1c1.6,0.6,2.9,1.5,4,2.6c1,1.1,1.9,2.3,2.6,3.7c0.7,1.4,1.2,2.9,1.3,4.4
		c0.2,1.5,0.2,3.1,0,4.6c-0.2,1.5-0.6,3-1.3,4.4c-0.7,1.4-1.6,2.6-2.6,3.7c-1,1.1-2.4,1.9-4,2.6c-1.6,0.6-3.4,1-5.3,1H103V102z
		 M104.4,128.6h6.3c1.7,0,3.3-0.3,4.8-0.9c1.5-0.6,2.6-1.4,3.6-2.3c0.9-1,1.7-2.1,2.4-3.4c0.7-1.3,1-2.6,1.2-4
		c0.1-1.4,0.1-2.8,0-4.2s-0.5-2.7-1.2-4c-0.7-1.3-1.4-2.4-2.4-3.4c-0.9-1-2.1-1.8-3.5-2.3c-1.4-0.6-3-0.9-4.7-0.9h-6.4V128.6z"/>
	<path class="st0" d="M140.4,130v-28h1.4v28H140.4z"/>
	<path class="st0" d="M171.6,101.7c4.3,0,7.7,1.4,10.4,4.3l-1,0.9c-2.5-2.6-5.6-3.9-9.4-3.9c-3.7,0-6.7,1.3-9,3.9
		c-2.3,2.6-3.5,5.6-3.5,9.1c0,3.3,1.2,6.3,3.5,8.9c2.3,2.6,5.3,3.9,9,3.9c2.9,0,5.5-1,7.9-2.9c2.4-1.9,3.7-4.5,4-7.7h-12.7V117H185
		c-0.2,3.8-1.5,6.9-4,9.4c-2.5,2.5-5.7,3.8-9.5,3.8c-2.8,0-5.2-0.7-7.4-2.1c-2.2-1.4-3.8-3.2-4.9-5.3c-1.1-2.1-1.6-4.4-1.7-6.7
		c0-2.4,0.5-4.7,1.6-6.9s2.7-3.9,4.9-5.3C166.3,102.4,168.8,101.7,171.6,101.7z"/>
	<path class="st0" d="M201.3,130v-28h1.4v28H201.3z"/>
	<path class="st0" d="M217.1,102H233v1.4h-7.2V130h-1.4v-26.6h-7.2V102z"/>
	<path class="st0" d="M242.6,130l10.1-28h2.1l10.2,28h-1.4l-3.5-9.6h-12.6L244,130H242.6z M253.7,102.9l-0.1,0l-5.7,16.1h11.6
		L253.7,102.9z"/>
	<path class="st0" d="M292.4,128.6v1.4h-12.7v-28h1.4v26.6H292.4z"/>
</g>
<linearGradient id="SVGID_1_" gradientUnits="userSpaceOnUse" x1="5.75" y1="102.625" x2="167" y2="102.625">
	<stop  offset="0" style="stop-color:#E82C86"/>
	<stop  offset="0.5226" style="stop-color:#EA4D50"/>
	<stop  offset="1" style="stop-color:#ED6A3A"/>
</linearGradient>
<polyline class="st1" points="7,54 7,150 167,150 "/>
<linearGradient id="SVGID_2_" gradientUnits="userSpaceOnUse" x1="315" y1="50.375" x2="383.25" y2="50.375">
	<stop  offset="0" style="stop-color:#E82C86"/>
	<stop  offset="0.5226" style="stop-color:#EA4D50"/>
	<stop  offset="1" style="stop-color:#ED6A3A"/>
</linearGradient>
<polyline class="st2" points="315,5 382,5 382,97 "/>
</svg>
